<svg id="mermaid-0-1781096825019" width="100%" xmlns="http://www.w3.org/2000/svg" style="max-width: 3097px;" viewBox="-50 -10 3097 1712" role="graphics-document document" aria-roledescription="sequence"><g><rect x="2847" y="1626" fill="#eaeaea" stroke="#666" width="150" height="65" name="DB" rx="3" ry="3" class="actor actor-bottom"/><text x="2922" y="1658.5" dominant-baseline="central" alignment-baseline="central" class="actor actor-box" style="text-anchor: middle; font-size: 16px; font-weight: 400;"><tspan x="2922" dy="0">SQLite DB</tspan></text></g><g><rect x="2292" y="1626" fill="#eaeaea" stroke="#666" width="242" height="65" name="Repo" rx="3" ry="3" class="actor actor-bottom"/><text x="2413" y="1658.5" dominant-baseline="central" alignment-baseline="central" class="actor actor-box" style="text-anchor: middle; font-size: 16px; font-weight: 400;"><tspan x="2413" dy="0">PrismaReservationRepository</tspan></text></g><g><rect x="2058" y="1626" fill="#eaeaea" stroke="#666" width="150" height="65" name="UC" rx="3" ry="3" class="actor actor-bottom"/><text x="2133" y="1658.5" dominant-baseline="central" alignment-baseline="central" class="actor actor-box" style="text-anchor: middle; font-size: 16px; font-weight: 400;"><tspan x="2133" dy="0">AppUseCases</tspan></text></g><g><rect x="1632.5" y="1626" fill="#eaeaea" stroke="#666" width="231" height="65" name="IPC" rx="3" ry="3" class="actor actor-bottom"/><text x="1748" y="1658.5" dominant-baseline="central" alignment-baseline="central" class="actor actor-box" style="text-anchor: middle; font-size: 16px; font-weight: 400;"><tspan x="1748" dy="0">IPC Main (setupIpcHandlers)</tspan></text></g><g><rect x="1432.5" y="1626" fill="#eaeaea" stroke="#666" width="150" height="65" name="Preload" rx="3" ry="3" class="actor actor-bottom"/><text x="1507.5" y="1658.5" dominant-baseline="central" alignment-baseline="central" class="actor actor-box" style="text-anchor: middle; font-size: 16px; font-weight: 400;"><tspan x="1507.5" dy="0">electronAPI</tspan></text></g><g><rect x="941.5" y="1626" fill="#eaeaea" stroke="#666" width="196" height="65" name="Drawer" rx="3" ry="3" class="actor actor-bottom"/><text x="1039.5" y="1658.5" dominant-baseline="central" alignment-baseline="central" class="actor actor-box" style="text-anchor: middle; font-size: 16px; font-weight: 400;"><tspan x="1039.5" dy="0">NewReservationDrawer</tspan></text></g><g><rect x="482.5" y="1626" fill="#eaeaea" stroke="#666" width="150" height="65" name="Modal" rx="3" ry="3" class="actor actor-bottom"/><text x="557.5" y="1658.5" dominant-baseline="central" alignment-baseline="central" class="actor actor-box" style="text-anchor: middle; font-size: 16px; font-weight: 400;"><tspan x="557.5" dy="0">예약 상세 모달</tspan></text></g><g><rect x="255.5" y="1626" fill="#eaeaea" stroke="#666" width="177" height="65" name="UI" rx="3" ry="3" class="actor actor-bottom"/><text x="344" y="1658.5" dominant-baseline="central" alignment-baseline="central" class="actor actor-box" style="text-anchor: middle; font-size: 16px; font-weight: 400;"><tspan x="344" dy="0">React UI (Dashboard)</tspan></text></g><g/><g><line id="actor8" x1="2922" y1="65" x2="2922" y2="1626" class="actor-line 200" stroke-width="0.5px" stroke="#999" name="DB" data-et="life-line" data-id="DB"/><g id="root-8" data-et="participant" data-type="participant" data-id="DB"><rect x="2847" y="0" fill="#eaeaea" stroke="#666" width="150" height="65" name="DB" rx="3" ry="3" class="actor actor-top"/><text x="2922" y="32.5" dominant-baseline="central" alignment-baseline="central" class="actor actor-box" style="text-anchor: middle; font-size: 16px; font-weight: 400;"><tspan x="2922" dy="0">SQLite DB</tspan></text></g></g><g><line id="actor7" x1="2413" y1="65" x2="2413" y2="1626" class="actor-line 200" stroke-width="0.5px" stroke="#999" name="Repo" data-et="life-line" data-id="Repo"/><g id="root-7" data-et="participant" data-type="participant" data-id="Repo"><rect x="2292" y="0" fill="#eaeaea" stroke="#666" width="242" height="65" name="Repo" rx="3" ry="3" class="actor actor-top"/><text x="2413" y="32.5" dominant-baseline="central" alignment-baseline="central" class="actor actor-box" style="text-anchor: middle; font-size: 16px; font-weight: 400;"><tspan x="2413" dy="0">PrismaReservationRepository</tspan></text></g></g><g><line id="actor6" x1="2133" y1="65" x2="2133" y2="1626" class="actor-line 200" stroke-width="0.5px" stroke="#999" name="UC" data-et="life-line" data-id="UC"/><g id="root-6" data-et="participant" data-type="participant" data-id="UC"><rect x="2058" y="0" fill="#eaeaea" stroke="#666" width="150" height="65" name="UC" rx="3" ry="3" class="actor actor-top"/><text x="2133" y="32.5" dominant-baseline="central" alignment-baseline="central" class="actor actor-box" style="text-anchor: middle; font-size: 16px; font-weight: 400;"><tspan x="2133" dy="0">AppUseCases</tspan></text></g></g><g><line id="actor5" x1="1748" y1="65" x2="1748" y2="1626" class="actor-line 200" stroke-width="0.5px" stroke="#999" name="IPC" data-et="life-line" data-id="IPC"/><g id="root-5" data-et="participant" data-type="participant" data-id="IPC"><rect x="1632.5" y="0" fill="#eaeaea" stroke="#666" width="231" height="65" name="IPC" rx="3" ry="3" class="actor actor-top"/><text x="1748" y="32.5" dominant-baseline="central" alignment-baseline="central" class="actor actor-box" style="text-anchor: middle; font-size: 16px; font-weight: 400;"><tspan x="1748" dy="0">IPC Main (setupIpcHandlers)</tspan></text></g></g><g><line id="actor4" x1="1507.5" y1="65" x2="1507.5" y2="1626" class="actor-line 200" stroke-width="0.5px" stroke="#999" name="Preload" data-et="life-line" data-id="Preload"/><g id="root-4" data-et="participant" data-type="participant" data-id="Preload"><rect x="1432.5" y="0" fill="#eaeaea" stroke="#666" width="150" height="65" name="Preload" rx="3" ry="3" class="actor actor-top"/><text x="1507.5" y="32.5" dominant-baseline="central" alignment-baseline="central" class="actor actor-box" style="text-anchor: middle; font-size: 16px; font-weight: 400;"><tspan x="1507.5" dy="0">electronAPI</tspan></text></g></g><g><line id="actor3" x1="1039.5" y1="65" x2="1039.5" y2="1626" class="actor-line 200" stroke-width="0.5px" stroke="#999" name="Drawer" data-et="life-line" data-id="Drawer"/><g id="root-3" data-et="participant" data-type="participant" data-id="Drawer"><rect x="941.5" y="0" fill="#eaeaea" stroke="#666" width="196" height="65" name="Drawer" rx="3" ry="3" class="actor actor-top"/><text x="1039.5" y="32.5" dominant-baseline="central" alignment-baseline="central" class="actor actor-box" style="text-anchor: middle; font-size: 16px; font-weight: 400;"><tspan x="1039.5" dy="0">NewReservationDrawer</tspan></text></g></g><g><line id="actor2" x1="557.5" y1="65" x2="557.5" y2="1626" class="actor-line 200" stroke-width="0.5px" stroke="#999" name="Modal" data-et="life-line" data-id="Modal"/><g id="root-2" data-et="participant" data-type="participant" data-id="Modal"><rect x="482.5" y="0" fill="#eaeaea" stroke="#666" width="150" height="65" name="Modal" rx="3" ry="3" class="actor actor-top"/><text x="557.5" y="32.5" dominant-baseline="central" alignment-baseline="central" class="actor actor-box" style="text-anchor: middle; font-size: 16px; font-weight: 400;"><tspan x="557.5" dy="0">예약 상세 모달</tspan></text></g></g><g><line id="actor1" x1="344" y1="65" x2="344" y2="1626" class="actor-line 200" stroke-width="0.5px" stroke="#999" name="UI" data-et="life-line" data-id="UI"/><g id="root-1" data-et="participant" data-type="participant" data-id="UI"><rect x="255.5" y="0" fill="#eaeaea" stroke="#666" width="177" height="65" name="UI" rx="3" ry="3" class="actor actor-top"/><text x="344" y="32.5" dominant-baseline="central" alignment-baseline="central" class="actor actor-box" style="text-anchor: middle; font-size: 16px; font-weight: 400;"><tspan x="344" dy="0">React UI (Dashboard)</tspan></text></g></g><g><line id="actor0" x1="75" y1="80" x2="75" y2="1626" class="actor-line 200" stroke-width="0.5px" stroke="#999" name="Admin" data-et="life-line" data-id="Admin"/></g><style>#mermaid-0-1781096825019{font-family:"trebuchet ms",verdana,arial,sans-serif;font-size:16px;fill:#ccc;}@keyframes edge-animation-frame{from{stroke-dashoffset:0;}}@keyframes dash{to{stroke-dashoffset:0;}}#mermaid-0-1781096825019 .edge-animation-slow{stroke-dasharray:9,5!important;stroke-dashoffset:900;animation:dash 50s linear infinite;stroke-linecap:round;}#mermaid-0-1781096825019 .edge-animation-fast{stroke-dasharray:9,5!important;stroke-dashoffset:900;animation:dash 20s linear infinite;stroke-linecap:round;}#mermaid-0-1781096825019 .error-icon{fill:#a44141;}#mermaid-0-1781096825019 .error-text{fill:#ddd;stroke:#ddd;}#mermaid-0-1781096825019 .edge-thickness-normal{stroke-width:1px;}#mermaid-0-1781096825019 .edge-thickness-thick{stroke-width:3.5px;}#mermaid-0-1781096825019 .edge-pattern-solid{stroke-dasharray:0;}#mermaid-0-1781096825019 .edge-thickness-invisible{stroke-width:0;fill:none;}#mermaid-0-1781096825019 .edge-pattern-dashed{stroke-dasharray:3;}#mermaid-0-1781096825019 .edge-pattern-dotted{stroke-dasharray:2;}#mermaid-0-1781096825019 .marker{fill:lightgrey;stroke:lightgrey;}#mermaid-0-1781096825019 .marker.cross{stroke:lightgrey;}#mermaid-0-1781096825019 svg{font-family:"trebuchet ms",verdana,arial,sans-serif;font-size:16px;}#mermaid-0-1781096825019 p{margin:0;}#mermaid-0-1781096825019 .actor{stroke:#ccc;fill:#1f2020;stroke-width:1;}#mermaid-0-1781096825019 rect.actor.outer-path[data-look="neo"]{filter:drop-shadow( 1px 2px 2px rgba(185,185,185,1));}#mermaid-0-1781096825019 rect.note[data-look="neo"]{stroke:hsl(180, 0%, 18.3529411765%);fill:hsl(180, 1.5873015873%, 28.3529411765%);filter:drop-shadow( 1px 2px 2px rgba(185,185,185,1));}#mermaid-0-1781096825019 text.actor&gt;tspan{fill:lightgrey;stroke:none;}#mermaid-0-1781096825019 .actor-line{stroke:#ccc;}#mermaid-0-1781096825019 .innerArc{stroke-width:1.5;stroke-dasharray:none;}#mermaid-0-1781096825019 .messageLine0{stroke-width:1.5;stroke-dasharray:none;stroke:lightgrey;}#mermaid-0-1781096825019 .messageLine1{stroke-width:1.5;stroke-dasharray:2,2;stroke:lightgrey;}#mermaid-0-1781096825019 [id$="-arrowhead"] path{fill:lightgrey;stroke:lightgrey;}#mermaid-0-1781096825019 .sequenceNumber{fill:black;}#mermaid-0-1781096825019 [id$="-sequencenumber"]{fill:lightgrey;}#mermaid-0-1781096825019 [id$="-crosshead"] path{fill:lightgrey;stroke:lightgrey;}#mermaid-0-1781096825019 .messageText{fill:lightgrey;stroke:none;}#mermaid-0-1781096825019 .labelBox{stroke:#ccc;fill:#1f2020;filter:none;}#mermaid-0-1781096825019 .labelText,#mermaid-0-1781096825019 .labelText&gt;tspan{fill:lightgrey;stroke:none;}#mermaid-0-1781096825019 .loopText,#mermaid-0-1781096825019 .loopText&gt;tspan{fill:lightgrey;stroke:none;}#mermaid-0-1781096825019 .sectionTitle,#mermaid-0-1781096825019 .sectionTitle&gt;tspan{fill:lightgrey;stroke:none;}#mermaid-0-1781096825019 .loopLine{stroke-width:2px;stroke-dasharray:2,2;stroke:#ccc;fill:#ccc;}#mermaid-0-1781096825019 .note{stroke:hsl(180, 0%, 18.3529411765%);fill:hsl(180, 1.5873015873%, 28.3529411765%);}#mermaid-0-1781096825019 .noteText,#mermaid-0-1781096825019 .noteText&gt;tspan{fill:rgb(183.8476190475, 181.5523809523, 181.5523809523);stroke:none;font-weight:normal;}#mermaid-0-1781096825019 .activation0{fill:hsl(180, 1.5873015873%, 28.3529411765%);stroke:#ccc;}#mermaid-0-1781096825019 .activation1{fill:hsl(180, 1.5873015873%, 28.3529411765%);stroke:#ccc;}#mermaid-0-1781096825019 .activation2{fill:hsl(180, 1.5873015873%, 28.3529411765%);stroke:#ccc;}#mermaid-0-1781096825019 .actorPopupMenu{position:absolute;}#mermaid-0-1781096825019 .actorPopupMenuPanel{position:absolute;fill:#1f2020;box-shadow:0px 8px 16px 0px rgba(0,0,0,0.2);filter:drop-shadow(3px 5px 2px rgb(0 0 0 / 0.4));}#mermaid-0-1781096825019 .actor-man circle,#mermaid-0-1781096825019 line{fill:#1f2020;stroke-width:2px;}#mermaid-0-1781096825019 g rect.rect{filter:drop-shadow( 1px 2px 2px rgba(185,185,185,1));stroke:#ccc;}#mermaid-0-1781096825019 .node .neo-node{stroke:#ccc;}#mermaid-0-1781096825019 [data-look="neo"].node rect,#mermaid-0-1781096825019 [data-look="neo"].cluster rect,#mermaid-0-1781096825019 [data-look="neo"].node polygon{stroke:url(#mermaid-0-1781096825019-gradient);filter:drop-shadow( 1px 2px 2px rgba(185,185,185,1));}#mermaid-0-1781096825019 [data-look="neo"].node path{stroke:url(#mermaid-0-1781096825019-gradient);stroke-width:1px;}#mermaid-0-1781096825019 [data-look="neo"].node .outer-path{filter:drop-shadow( 1px 2px 2px rgba(185,185,185,1));}#mermaid-0-1781096825019 [data-look="neo"].node .neo-line path{stroke:#ccc;filter:none;}#mermaid-0-1781096825019 [data-look="neo"].node circle{stroke:url(#mermaid-0-1781096825019-gradient);filter:drop-shadow( 1px 2px 2px rgba(185,185,185,1));}#mermaid-0-1781096825019 [data-look="neo"].node circle .state-start{fill:#000000;}#mermaid-0-1781096825019 [data-look="neo"].icon-shape .icon{fill:url(#mermaid-0-1781096825019-gradient);filter:drop-shadow( 1px 2px 2px rgba(185,185,185,1));}#mermaid-0-1781096825019 [data-look="neo"].icon-shape .icon-neo path{stroke:url(#mermaid-0-1781096825019-gradient);filter:drop-shadow( 1px 2px 2px rgba(185,185,185,1));}#mermaid-0-1781096825019 :root{--mermaid-font-family:"trebuchet ms",verdana,arial,sans-serif;}</style><g/><defs><symbol id="mermaid-0-1781096825019-computer" width="24" height="24"><path transform="scale(.5)" d="M2 2v13h20v-13h-20zm18 11h-16v-9h16v9zm-10.228 6l.466-1h3.524l.467 1h-4.457zm14.228 3h-24l2-6h2.104l-1.33 4h18.45l-1.297-4h2.073l2 6zm-5-10h-14v-7h14v7z"/></symbol></defs><defs><symbol id="mermaid-0-1781096825019-database" fill-rule="evenodd" clip-rule="evenodd"><path transform="scale(.5)" d="M12.258.001l.256.004.255.005.253.008.251.01.249.012.247.015.246.016.242.019.241.02.239.023.236.024.233.027.231.028.229.031.225.032.223.034.22.036.217.038.214.04.211.041.208.043.205.045.201.046.198.048.194.05.191.051.187.053.183.054.18.056.175.057.172.059.168.06.163.061.16.063.155.064.15.066.074.033.073.033.071.034.07.034.069.035.068.035.067.035.066.035.064.036.064.036.062.036.06.036.06.037.058.037.058.037.055.038.055.038.053.038.052.038.051.039.05.039.048.039.047.039.045.04.044.04.043.04.041.04.04.041.039.041.037.041.036.041.034.041.033.042.032.042.03.042.029.042.027.042.026.043.024.043.023.043.021.043.02.043.018.044.017.043.015.044.013.044.012.044.011.045.009.044.007.045.006.045.004.045.002.045.001.045v17l-.001.045-.002.045-.004.045-.006.045-.007.045-.009.044-.011.045-.012.044-.013.044-.015.044-.017.043-.018.044-.02.043-.021.043-.023.043-.024.043-.026.043-.027.042-.029.042-.03.042-.032.042-.033.042-.034.041-.036.041-.037.041-.039.041-.04.041-.041.04-.043.04-.044.04-.045.04-.047.039-.048.039-.05.039-.051.039-.052.038-.053.038-.055.038-.055.038-.058.037-.058.037-.06.037-.06.036-.062.036-.064.036-.064.036-.066.035-.067.035-.068.035-.069.035-.07.034-.071.034-.073.033-.074.033-.15.066-.155.064-.16.063-.163.061-.168.06-.172.059-.175.057-.18.056-.183.054-.187.053-.191.051-.194.05-.198.048-.201.046-.205.045-.208.043-.211.041-.214.04-.217.038-.22.036-.223.034-.225.032-.229.031-.231.028-.233.027-.236.024-.239.023-.241.02-.242.019-.246.016-.247.015-.249.012-.251.01-.253.008-.255.005-.256.004-.258.001-.258-.001-.256-.004-.255-.005-.253-.008-.251-.01-.249-.012-.247-.015-.245-.016-.243-.019-.241-.02-.238-.023-.236-.024-.234-.027-.231-.028-.228-.031-.226-.032-.223-.034-.22-.036-.217-.038-.214-.04-.211-.041-.208-.043-.204-.045-.201-.046-.198-.048-.195-.05-.19-.051-.187-.053-.184-.054-.179-.056-.176-.057-.172-.059-.167-.06-.164-.061-.159-.063-.155-.064-.151-.066-.074-.033-.072-.033-.072-.034-.07-.034-.069-.035-.068-.035-.067-.035-.066-.035-.064-.036-.063-.036-.062-.036-.061-.036-.06-.037-.058-.037-.057-.037-.056-.038-.055-.038-.053-.038-.052-.038-.051-.039-.049-.039-.049-.039-.046-.039-.046-.04-.044-.04-.043-.04-.041-.04-.04-.041-.039-.041-.037-.041-.036-.041-.034-.041-.033-.042-.032-.042-.03-.042-.029-.042-.027-.042-.026-.043-.024-.043-.023-.043-.021-.043-.02-.043-.018-.044-.017-.043-.015-.044-.013-.044-.012-.044-.011-.045-.009-.044-.007-.045-.006-.045-.004-.045-.002-.045-.001-.045v-17l.001-.045.002-.045.004-.045.006-.045.007-.045.009-.044.011-.045.012-.044.013-.044.015-.044.017-.043.018-.044.02-.043.021-.043.023-.043.024-.043.026-.043.027-.042.029-.042.03-.042.032-.042.033-.042.034-.041.036-.041.037-.041.039-.041.04-.041.041-.04.043-.04.044-.04.046-.04.046-.039.049-.039.049-.039.051-.039.052-.038.053-.038.055-.038.056-.038.057-.037.058-.037.06-.037.061-.036.062-.036.063-.036.064-.036.066-.035.067-.035.068-.035.069-.035.07-.034.072-.034.072-.033.074-.033.151-.066.155-.064.159-.063.164-.061.167-.06.172-.059.176-.057.179-.056.184-.054.187-.053.19-.051.195-.05.198-.048.201-.046.204-.045.208-.043.211-.041.214-.04.217-.038.22-.036.223-.034.226-.032.228-.031.231-.028.234-.027.236-.024.238-.023.241-.02.243-.019.245-.016.247-.015.249-.012.251-.01.253-.008.255-.005.256-.004.258-.001.258.001zm-9.258 20.499v.01l.001.021.003.021.004.022.005.021.006.022.007.022.009.023.01.022.011.023.012.023.013.023.015.023.016.024.017.023.018.024.019.024.021.024.022.025.023.024.024.025.052.049.056.05.061.051.066.051.07.051.075.051.079.052.084.052.088.052.092.052.097.052.102.051.105.052.11.052.114.051.119.051.123.051.127.05.131.05.135.05.139.048.144.049.147.047.152.047.155.047.16.045.163.045.167.043.171.043.176.041.178.041.183.039.187.039.19.037.194.035.197.035.202.033.204.031.209.03.212.029.216.027.219.025.222.024.226.021.23.02.233.018.236.016.24.015.243.012.246.01.249.008.253.005.256.004.259.001.26-.001.257-.004.254-.005.25-.008.247-.011.244-.012.241-.014.237-.016.233-.018.231-.021.226-.021.224-.024.22-.026.216-.027.212-.028.21-.031.205-.031.202-.034.198-.034.194-.036.191-.037.187-.039.183-.04.179-.04.175-.042.172-.043.168-.044.163-.045.16-.046.155-.046.152-.047.148-.048.143-.049.139-.049.136-.05.131-.05.126-.05.123-.051.118-.052.114-.051.11-.052.106-.052.101-.052.096-.052.092-.052.088-.053.083-.051.079-.052.074-.052.07-.051.065-.051.06-.051.056-.05.051-.05.023-.024.023-.025.021-.024.02-.024.019-.024.018-.024.017-.024.015-.023.014-.024.013-.023.012-.023.01-.023.01-.022.008-.022.006-.022.006-.022.004-.022.004-.021.001-.021.001-.021v-4.127l-.077.055-.08.053-.083.054-.085.053-.087.052-.09.052-.093.051-.095.05-.097.05-.1.049-.102.049-.105.048-.106.047-.109.047-.111.046-.114.045-.115.045-.118.044-.12.043-.122.042-.124.042-.126.041-.128.04-.13.04-.132.038-.134.038-.135.037-.138.037-.139.035-.142.035-.143.034-.144.033-.147.032-.148.031-.15.03-.151.03-.153.029-.154.027-.156.027-.158.026-.159.025-.161.024-.162.023-.163.022-.165.021-.166.02-.167.019-.169.018-.169.017-.171.016-.173.015-.173.014-.175.013-.175.012-.177.011-.178.01-.179.008-.179.008-.181.006-.182.005-.182.004-.184.003-.184.002h-.37l-.184-.002-.184-.003-.182-.004-.182-.005-.181-.006-.179-.008-.179-.008-.178-.01-.176-.011-.176-.012-.175-.013-.173-.014-.172-.015-.171-.016-.17-.017-.169-.018-.167-.019-.166-.02-.165-.021-.163-.022-.162-.023-.161-.024-.159-.025-.157-.026-.156-.027-.155-.027-.153-.029-.151-.03-.15-.03-.148-.031-.146-.032-.145-.033-.143-.034-.141-.035-.14-.035-.137-.037-.136-.037-.134-.038-.132-.038-.13-.04-.128-.04-.126-.041-.124-.042-.122-.042-.12-.044-.117-.043-.116-.045-.113-.045-.112-.046-.109-.047-.106-.047-.105-.048-.102-.049-.1-.049-.097-.05-.095-.05-.093-.052-.09-.051-.087-.052-.085-.053-.083-.054-.08-.054-.077-.054v4.127zm0-5.654v.011l.001.021.003.021.004.021.005.022.006.022.007.022.009.022.01.022.011.023.012.023.013.023.015.024.016.023.017.024.018.024.019.024.021.024.022.024.023.025.024.024.052.05.056.05.061.05.066.051.07.051.075.052.079.051.084.052.088.052.092.052.097.052.102.052.105.052.11.051.114.051.119.052.123.05.127.051.131.05.135.049.139.049.144.048.147.048.152.047.155.046.16.045.163.045.167.044.171.042.176.042.178.04.183.04.187.038.19.037.194.036.197.034.202.033.204.032.209.03.212.028.216.027.219.025.222.024.226.022.23.02.233.018.236.016.24.014.243.012.246.01.249.008.253.006.256.003.259.001.26-.001.257-.003.254-.006.25-.008.247-.01.244-.012.241-.015.237-.016.233-.018.231-.02.226-.022.224-.024.22-.025.216-.027.212-.029.21-.03.205-.032.202-.033.198-.035.194-.036.191-.037.187-.039.183-.039.179-.041.175-.042.172-.043.168-.044.163-.045.16-.045.155-.047.152-.047.148-.048.143-.048.139-.05.136-.049.131-.05.126-.051.123-.051.118-.051.114-.052.11-.052.106-.052.101-.052.096-.052.092-.052.088-.052.083-.052.079-.052.074-.051.07-.052.065-.051.06-.05.056-.051.051-.049.023-.025.023-.024.021-.025.02-.024.019-.024.018-.024.017-.024.015-.023.014-.023.013-.024.012-.022.01-.023.01-.023.008-.022.006-.022.006-.022.004-.021.004-.022.001-.021.001-.021v-4.139l-.077.054-.08.054-.083.054-.085.052-.087.053-.09.051-.093.051-.095.051-.097.05-.1.049-.102.049-.105.048-.106.047-.109.047-.111.046-.114.045-.115.044-.118.044-.12.044-.122.042-.124.042-.126.041-.128.04-.13.039-.132.039-.134.038-.135.037-.138.036-.139.036-.142.035-.143.033-.144.033-.147.033-.148.031-.15.03-.151.03-.153.028-.154.028-.156.027-.158.026-.159.025-.161.024-.162.023-.163.022-.165.021-.166.02-.167.019-.169.018-.169.017-.171.016-.173.015-.173.014-.175.013-.175.012-.177.011-.178.009-.179.009-.179.007-.181.007-.182.005-.182.004-.184.003-.184.002h-.37l-.184-.002-.184-.003-.182-.004-.182-.005-.181-.007-.179-.007-.179-.009-.178-.009-.176-.011-.176-.012-.175-.013-.173-.014-.172-.015-.171-.016-.17-.017-.169-.018-.167-.019-.166-.02-.165-.021-.163-.022-.162-.023-.161-.024-.159-.025-.157-.026-.156-.027-.155-.028-.153-.028-.151-.03-.15-.03-.148-.031-.146-.033-.145-.033-.143-.033-.141-.035-.14-.036-.137-.036-.136-.037-.134-.038-.132-.039-.13-.039-.128-.04-.126-.041-.124-.042-.122-.043-.12-.043-.117-.044-.116-.044-.113-.046-.112-.046-.109-.046-.106-.047-.105-.048-.102-.049-.1-.049-.097-.05-.095-.051-.093-.051-.09-.051-.087-.053-.085-.052-.083-.054-.08-.054-.077-.054v4.139zm0-5.666v.011l.001.02.003.022.004.021.005.022.006.021.007.022.009.023.01.022.011.023.012.023.013.023.015.023.016.024.017.024.018.023.019.024.021.025.022.024.023.024.024.025.052.05.056.05.061.05.066.051.07.051.075.052.079.051.084.052.088.052.092.052.097.052.102.052.105.051.11.052.114.051.119.051.123.051.127.05.131.05.135.05.139.049.144.048.147.048.152.047.155.046.16.045.163.045.167.043.171.043.176.042.178.04.183.04.187.038.19.037.194.036.197.034.202.033.204.032.209.03.212.028.216.027.219.025.222.024.226.021.23.02.233.018.236.017.24.014.243.012.246.01.249.008.253.006.256.003.259.001.26-.001.257-.003.254-.006.25-.008.247-.01.244-.013.241-.014.237-.016.233-.018.231-.02.226-.022.224-.024.22-.025.216-.027.212-.029.21-.03.205-.032.202-.033.198-.035.194-.036.191-.037.187-.039.183-.039.179-.041.175-.042.172-.043.168-.044.163-.045.16-.045.155-.047.152-.047.148-.048.143-.049.139-.049.136-.049.131-.051.126-.05.123-.051.118-.052.114-.051.11-.052.106-.052.101-.052.096-.052.092-.052.088-.052.083-.052.079-.052.074-.052.07-.051.065-.051.06-.051.056-.05.051-.049.023-.025.023-.025.021-.024.02-.024.019-.024.018-.024.017-.024.015-.023.014-.024.013-.023.012-.023.01-.022.01-.023.008-.022.006-.022.006-.022.004-.022.004-.021.001-.021.001-.021v-4.153l-.077.054-.08.054-.083.053-.085.053-.087.053-.09.051-.093.051-.095.051-.097.05-.1.049-.102.048-.105.048-.106.048-.109.046-.111.046-.114.046-.115.044-.118.044-.12.043-.122.043-.124.042-.126.041-.128.04-.13.039-.132.039-.134.038-.135.037-.138.036-.139.036-.142.034-.143.034-.144.033-.147.032-.148.032-.15.03-.151.03-.153.028-.154.028-.156.027-.158.026-.159.024-.161.024-.162.023-.163.023-.165.021-.166.02-.167.019-.169.018-.169.017-.171.016-.173.015-.173.014-.175.013-.175.012-.177.01-.178.01-.179.009-.179.007-.181.006-.182.006-.182.004-.184.003-.184.001-.185.001-.185-.001-.184-.001-.184-.003-.182-.004-.182-.006-.181-.006-.179-.007-.179-.009-.178-.01-.176-.01-.176-.012-.175-.013-.173-.014-.172-.015-.171-.016-.17-.017-.169-.018-.167-.019-.166-.02-.165-.021-.163-.023-.162-.023-.161-.024-.159-.024-.157-.026-.156-.027-.155-.028-.153-.028-.151-.03-.15-.03-.148-.032-.146-.032-.145-.033-.143-.034-.141-.034-.14-.036-.137-.036-.136-.037-.134-.038-.132-.039-.13-.039-.128-.041-.126-.041-.124-.041-.122-.043-.12-.043-.117-.044-.116-.044-.113-.046-.112-.046-.109-.046-.106-.048-.105-.048-.102-.048-.1-.05-.097-.049-.095-.051-.093-.051-.09-.052-.087-.052-.085-.053-.083-.053-.08-.054-.077-.054v4.153zm8.74-8.179l-.257.004-.254.005-.25.008-.247.011-.244.012-.241.014-.237.016-.233.018-.231.021-.226.022-.224.023-.22.026-.216.027-.212.028-.21.031-.205.032-.202.033-.198.034-.194.036-.191.038-.187.038-.183.04-.179.041-.175.042-.172.043-.168.043-.163.045-.16.046-.155.046-.152.048-.148.048-.143.048-.139.049-.136.05-.131.05-.126.051-.123.051-.118.051-.114.052-.11.052-.106.052-.101.052-.096.052-.092.052-.088.052-.083.052-.079.052-.074.051-.07.052-.065.051-.06.05-.056.05-.051.05-.023.025-.023.024-.021.024-.02.025-.019.024-.018.024-.017.023-.015.024-.014.023-.013.023-.012.023-.01.023-.01.022-.008.022-.006.023-.006.021-.004.022-.004.021-.001.021-.001.021.001.021.001.021.004.021.004.022.006.021.006.023.008.022.01.022.01.023.012.023.013.023.014.023.015.024.017.023.018.024.019.024.02.025.021.024.023.024.023.025.051.05.056.05.06.05.065.051.07.052.074.051.079.052.083.052.088.052.092.052.096.052.101.052.106.052.11.052.114.052.118.051.123.051.126.051.131.05.136.05.139.049.143.048.148.048.152.048.155.046.16.046.163.045.168.043.172.043.175.042.179.041.183.04.187.038.191.038.194.036.198.034.202.033.205.032.21.031.212.028.216.027.22.026.224.023.226.022.231.021.233.018.237.016.241.014.244.012.247.011.25.008.254.005.257.004.26.001.26-.001.257-.004.254-.005.25-.008.247-.011.244-.012.241-.014.237-.016.233-.018.231-.021.226-.022.224-.023.22-.026.216-.027.212-.028.21-.031.205-.032.202-.033.198-.034.194-.036.191-.038.187-.038.183-.04.179-.041.175-.042.172-.043.168-.043.163-.045.16-.046.155-.046.152-.048.148-.048.143-.048.139-.049.136-.05.131-.05.126-.051.123-.051.118-.051.114-.052.11-.052.106-.052.101-.052.096-.052.092-.052.088-.052.083-.052.079-.052.074-.051.07-.052.065-.051.06-.05.056-.05.051-.05.023-.025.023-.024.021-.024.02-.025.019-.024.018-.024.017-.023.015-.024.014-.023.013-.023.012-.023.01-.023.01-.022.008-.022.006-.023.006-.021.004-.022.004-.021.001-.021.001-.021-.001-.021-.001-.021-.004-.021-.004-.022-.006-.021-.006-.023-.008-.022-.01-.022-.01-.023-.012-.023-.013-.023-.014-.023-.015-.024-.017-.023-.018-.024-.019-.024-.02-.025-.021-.024-.023-.024-.023-.025-.051-.05-.056-.05-.06-.05-.065-.051-.07-.052-.074-.051-.079-.052-.083-.052-.088-.052-.092-.052-.096-.052-.101-.052-.106-.052-.11-.052-.114-.052-.118-.051-.123-.051-.126-.051-.131-.05-.136-.05-.139-.049-.143-.048-.148-.048-.152-.048-.155-.046-.16-.046-.163-.045-.168-.043-.172-.043-.175-.042-.179-.041-.183-.04-.187-.038-.191-.038-.194-.036-.198-.034-.202-.033-.205-.032-.21-.031-.212-.028-.216-.027-.22-.026-.224-.023-.226-.022-.231-.021-.233-.018-.237-.016-.241-.014-.244-.012-.247-.011-.25-.008-.254-.005-.257-.004-.26-.001-.26.001z"/></symbol></defs><defs><symbol id="mermaid-0-1781096825019-clock" width="24" height="24"><path transform="scale(.5)" d="M12 2c5.514 0 10 4.486 10 10s-4.486 10-10 10-10-4.486-10-10 4.486-10 10-10zm0-2c-6.627 0-12 5.373-12 12s5.373 12 12 12 12-5.373 12-12-5.373-12-12-12zm5.848 12.459c.202.038.202.333.001.372-1.907.361-6.045 1.111-6.547 1.111-.719 0-1.301-.582-1.301-1.301 0-.512.77-5.447 1.125-7.445.034-.192.312-.181.343.014l.985 6.238 5.394 1.011z"/></symbol></defs><defs><marker id="mermaid-0-1781096825019-arrowhead" refX="7.9" refY="5" markerUnits="userSpaceOnUse" markerWidth="12" markerHeight="12" orient="auto-start-reverse"><path d="M -1 0 L 10 5 L 0 10 z"/></marker></defs><defs><marker id="mermaid-0-1781096825019-crosshead" markerWidth="15" markerHeight="8" orient="auto" refX="4" refY="4.5"><path fill="none" stroke="#000000" stroke-width="1pt" d="M 1,2 L 6,7 M 6,2 L 1,7" style="stroke-dasharray: 0, 0;"/></marker></defs><defs><marker id="mermaid-0-1781096825019-filled-head" refX="15.5" refY="7" markerWidth="20" markerHeight="28" orient="auto"><path d="M 18,7 L9,13 L14,7 L9,1 Z"/></marker></defs><defs><marker id="mermaid-0-1781096825019-sequencenumber" refX="15" refY="15" markerWidth="60" markerHeight="40" orient="auto"><circle cx="15" cy="15" r="6"/></marker></defs><defs><marker id="mermaid-0-1781096825019-solidTopArrowHead" refX="7.9" refY="7.25" markerUnits="userSpaceOnUse" markerWidth="12" markerHeight="12" orient="auto-start-reverse"><path d="M 0 0 L 10 8 L 0 8 z"/></marker></defs><defs><marker id="mermaid-0-1781096825019-solidBottomArrowHead" refX="7.9" refY="0.75" markerUnits="userSpaceOnUse" markerWidth="12" markerHeight="12" orient="auto-start-reverse"><path d="M 0 0 L 10 0 L 0 8 z"/></marker></defs><defs><marker id="mermaid-0-1781096825019-stickTopArrowHead" refX="7.5" refY="7" markerUnits="userSpaceOnUse" markerWidth="12" markerHeight="12" orient="auto-start-reverse"><path d="M 0 0 L 7 7" stroke="black" stroke-width="1.5" fill="none"/></marker></defs><defs><marker id="mermaid-0-1781096825019-stickBottomArrowHead" refX="7.5" refY="0" markerUnits="userSpaceOnUse" markerWidth="12" markerHeight="12" orient="auto-start-reverse"><path d="M 0 7 L 7 0" stroke="black" stroke-width="1.5" fill="none"/></marker></defs><g><rect x="339" y="117" fill="#EDF2AE" stroke="#666" width="10" height="1489" class="activation0"/></g><g><rect x="552.5" y="171" fill="#EDF2AE" stroke="#666" width="10" height="213" class="activation0"/></g><g data-et="control-structure" data-id="i8"><line x1="64" y1="179" x2="572.5" y2="179" class="loopLine"/><line x1="572.5" y1="179" x2="572.5" y2="332" class="loopLine"/><line x1="64" y1="332" x2="572.5" y2="332" class="loopLine"/><line x1="64" y1="179" x2="64" y2="332" class="loopLine"/><polygon points="64,179 114,179 114,192 105.6,199 64,199" class="labelBox"/><text x="89" y="192" text-anchor="middle" dominant-baseline="middle" alignment-baseline="middle" class="labelText" style="font-size: 16px; font-weight: 400;">alt</text><text x="343.25" y="197" text-anchor="middle" class="loopText" style="font-size: 16px; font-weight: 400;"><tspan x="343.25">[반복 예약(groupId 보유)인 경우]</tspan></text></g><g><rect x="1034.5" y="386" fill="#EDF2AE" stroke="#666" width="10" height="1086" class="activation0"/></g><g><rect x="1502.5" y="548" fill="#EDF2AE" stroke="#666" width="10" height="836" class="activation0"/></g><g><rect x="1743" y="600" fill="#EDF2AE" stroke="#666" width="10" height="726" class="activation0"/></g><g><rect x="2128" y="658" fill="#EDF2AE" stroke="#666" width="10" height="610" class="activation0"/></g><g><rect x="2408" y="765" fill="#EDF2AE" stroke="#666" width="10" height="166" class="activation0"/></g><g><rect x="2917" y="823" fill="#EDF2AE" stroke="#666" width="10" height="56" class="activation0"/></g><g><rect x="2408" y="1040" fill="#EDF2AE" stroke="#666" width="10" height="166" class="activation0"/></g><g><rect x="2917" y="1098" fill="#EDF2AE" stroke="#666" width="10" height="56" class="activation0"/></g><g data-et="control-structure" data-id="i38"><line x1="2118" y1="666" x2="2937" y2="666" class="loopLine"/><line x1="2937" y1="666" x2="2937" y2="1216" class="loopLine"/><line x1="2118" y1="1216" x2="2937" y2="1216" class="loopLine"/><line x1="2118" y1="666" x2="2118" y2="1216" class="loopLine"/><line x1="2118" y1="946" x2="2937" y2="946" class="loopLine" style="stroke-dasharray: 3, 3;"/><polygon points="2118,666 2168,666 2168,679 2159.6,686 2118,686" class="labelBox"/><text x="2143" y="679" text-anchor="middle" dominant-baseline="middle" alignment-baseline="middle" class="labelText" style="font-size: 16px; font-weight: 400;">alt</text><text x="2552.5" y="684" text-anchor="middle" class="loopText" style="font-size: 16px; font-weight: 400;"><tspan x="2552.5">[updateGroup=true이고 data.groupId 존재]</tspan></text><text x="2527.5" y="964" text-anchor="middle" class="sectionTitle" style="font-size: 16px; font-weight: 400;">[단일 수정 (updateGroup=false)]</text></g><g class="actor-man actor-top" name="Admin" data-et="participant" data-type="actor" data-id="Admin" style="stroke: rgb(204, 204, 204);"><line id="actor-man-torso0" x1="75" y1="25" x2="75" y2="45"/><line id="actor-man-arms0" x1="57" y1="33" x2="93" y2="33"/><line x1="57" y1="60" x2="75" y2="45"/><line x1="75" y1="45" x2="91" y2="60"/><circle cx="75" cy="10" r="15" width="150" height="65"/><text x="75" y="67.5" dominant-baseline="central" alignment-baseline="central" class="actor actor-man" style="text-anchor: middle; font-size: 16px; font-weight: 400;"><tspan x="75" dy="0">관리자</tspan></text></g><text x="208" y="80" text-anchor="middle" dominant-baseline="middle" alignment-baseline="middle" class="messageText" dy="1em" style="font-size: 16px; font-weight: 400;">타임테이블의 예약 블록 클릭</text><line x1="82" y1="117" x2="340" y2="117" class="messageLine0" data-et="message" data-id="i1" data-from="Admin" data-to="UI" stroke-width="2" stroke="none" marker-end="url(#mermaid-0-1781096825019-arrowhead)" style="fill: none;"/><line x1="75" y1="117" x2="75" y2="117" stroke-width="0" marker-start="url(#mermaid-0-1781096825019-sequencenumber)"/><text x="75" y="121" font-family="sans-serif" font-size="12px" text-anchor="middle" class="sequenceNumber">1</text><text x="209" y="132" text-anchor="middle" dominant-baseline="middle" alignment-baseline="middle" class="messageText" dy="1em" style="font-size: 16px; font-weight: 400;">예약 상세 정보 모달 팝업 출력</text><line x1="345" y1="169" x2="79" y2="169" class="messageLine1" data-et="message" data-id="i3" data-from="UI" data-to="Admin" stroke-width="2" stroke="none" marker-end="url(#mermaid-0-1781096825019-arrowhead)" style="stroke-dasharray: 3, 3; fill: none;"/><line x1="348" y1="169" x2="348" y2="169" stroke-width="0" marker-start="url(#mermaid-0-1781096825019-sequencenumber)"/><text x="348" y="173" font-family="sans-serif" font-size="12px" text-anchor="middle" class="sequenceNumber">2</text><text x="316" y="233" text-anchor="middle" dominant-baseline="middle" alignment-baseline="middle" class="messageText" dy="1em" style="font-size: 16px; font-weight: 400;">'단일 수정' / '전체 수정' 버튼 노출</text><line x1="558.5" y1="270" x2="79" y2="270" class="messageLine1" data-et="message" data-id="i6" data-from="Modal" data-to="Admin" stroke-width="2" stroke="none" marker-end="url(#mermaid-0-1781096825019-arrowhead)" style="stroke-dasharray: 3, 3; fill: none;"/><line x1="561.5" y1="270" x2="561.5" y2="270" stroke-width="0" marker-start="url(#mermaid-0-1781096825019-sequencenumber)"/><text x="561.5" y="274" font-family="sans-serif" font-size="12px" text-anchor="middle" class="sequenceNumber">3</text><text x="313" y="285" text-anchor="middle" dominant-baseline="middle" alignment-baseline="middle" class="messageText" dy="1em" style="font-size: 16px; font-weight: 400;">수정 범위 선택 클릭</text><line x1="82" y1="322" x2="549.5" y2="322" class="messageLine0" data-et="message" data-id="i7" data-from="Admin" data-to="Modal" stroke-width="2" stroke="none" marker-end="url(#mermaid-0-1781096825019-arrowhead)" style="fill: none;"/><line x1="75" y1="322" x2="75" y2="322" stroke-width="0" marker-start="url(#mermaid-0-1781096825019-sequencenumber)"/><text x="75" y="326" font-family="sans-serif" font-size="12px" text-anchor="middle" class="sequenceNumber">4</text><text x="799" y="347" text-anchor="middle" dominant-baseline="middle" alignment-baseline="middle" class="messageText" dy="1em" style="font-size: 16px; font-weight: 400;">기존 예약 데이터 + updateGroup 플래그를 넣어 Drawer 오픈</text><line x1="568.5" y1="384" x2="1035.5" y2="384" class="messageLine0" data-et="message" data-id="i9" data-from="Modal" data-to="Drawer" stroke-width="2" stroke="none" marker-end="url(#mermaid-0-1781096825019-arrowhead)" style="fill: none;"/><line x1="553.5" y1="384" x2="553.5" y2="384" stroke-width="0" marker-start="url(#mermaid-0-1781096825019-sequencenumber)"/><text x="553.5" y="388" font-family="sans-serif" font-size="12px" text-anchor="middle" class="sequenceNumber">5</text><text x="557" y="399" text-anchor="middle" dominant-baseline="middle" alignment-baseline="middle" class="messageText" dy="1em" style="font-size: 16px; font-weight: 400;">기존 데이터가 Pre-fill된 예약 수정 폼 렌더링</text><line x1="1040.5" y1="436" x2="79" y2="436" class="messageLine1" data-et="message" data-id="i12" data-from="Drawer" data-to="Admin" stroke-width="2" stroke="none" marker-end="url(#mermaid-0-1781096825019-arrowhead)" style="stroke-dasharray: 3, 3; fill: none;"/><line x1="1043.5" y1="436" x2="1043.5" y2="436" stroke-width="0" marker-start="url(#mermaid-0-1781096825019-sequencenumber)"/><text x="1043.5" y="440" font-family="sans-serif" font-size="12px" text-anchor="middle" class="sequenceNumber">6</text><text x="554" y="451" text-anchor="middle" dominant-baseline="middle" alignment-baseline="middle" class="messageText" dy="1em" style="font-size: 16px; font-weight: 400;">예약 정보 수정 후 '수정하기' 버튼 클릭</text><line x1="82" y1="488" x2="1031.5" y2="488" class="messageLine0" data-et="message" data-id="i13" data-from="Admin" data-to="Drawer" stroke-width="2" stroke="none" marker-end="url(#mermaid-0-1781096825019-arrowhead)" style="fill: none;"/><line x1="75" y1="488" x2="75" y2="488" stroke-width="0" marker-start="url(#mermaid-0-1781096825019-sequencenumber)"/><text x="75" y="492" font-family="sans-serif" font-size="12px" text-anchor="middle" class="sequenceNumber">7</text><text x="1274" y="503" text-anchor="middle" dominant-baseline="middle" alignment-baseline="middle" class="messageText" dy="1em" style="font-size: 16px; font-weight: 400;">invoke('reservation:update', { id, data, updateGroup })</text><line x1="1050.5" y1="546" x2="1503.5" y2="546" class="messageLine0" data-et="message" data-id="i14" data-from="Drawer" data-to="Preload" stroke-width="2" stroke="none" marker-end="url(#mermaid-0-1781096825019-arrowhead)" style="fill: none;"/><line x1="1035.5" y1="546" x2="1035.5" y2="546" stroke-width="0" marker-start="url(#mermaid-0-1781096825019-sequencenumber)"/><text x="1035.5" y="550" font-family="sans-serif" font-size="12px" text-anchor="middle" class="sequenceNumber">8</text><text x="1628" y="561" text-anchor="middle" dominant-baseline="middle" alignment-baseline="middle" class="messageText" dy="1em" style="font-size: 16px; font-weight: 400;">IPC 채널 전송</text><line x1="1518.5" y1="598" x2="1744" y2="598" class="messageLine0" data-et="message" data-id="i16" data-from="Preload" data-to="IPC" stroke-width="2" stroke="none" marker-end="url(#mermaid-0-1781096825019-arrowhead)" style="fill: none;"/><line x1="1503.5" y1="598" x2="1503.5" y2="598" stroke-width="0" marker-start="url(#mermaid-0-1781096825019-sequencenumber)"/><text x="1503.5" y="602" font-family="sans-serif" font-size="12px" text-anchor="middle" class="sequenceNumber">9</text><text x="1941" y="613" text-anchor="middle" dominant-baseline="middle" alignment-baseline="middle" class="messageText" dy="1em" style="font-size: 16px; font-weight: 400;">updateReservation(id, data, updateGroup)</text><line x1="1759" y1="656" x2="2129" y2="656" class="messageLine0" data-et="message" data-id="i18" data-from="IPC" data-to="UC" stroke-width="2" stroke="none" marker-end="url(#mermaid-0-1781096825019-arrowhead)" style="fill: none;"/><line x1="1744" y1="656" x2="1744" y2="656" stroke-width="0" marker-start="url(#mermaid-0-1781096825019-sequencenumber)"/><text x="1744" y="660" font-family="sans-serif" font-size="12px" text-anchor="middle" class="sequenceNumber">10</text><text x="2274" y="720" text-anchor="middle" dominant-baseline="middle" alignment-baseline="middle" class="messageText" dy="1em" style="font-size: 16px; font-weight: 400;">updateGroup(groupId, data)</text><line x1="2144" y1="763" x2="2409" y2="763" class="messageLine0" data-et="message" data-id="i21" data-from="UC" data-to="Repo" stroke-width="2" stroke="none" marker-end="url(#mermaid-0-1781096825019-arrowhead)" style="fill: none;"/><line x1="2129" y1="763" x2="2129" y2="763" stroke-width="0" marker-start="url(#mermaid-0-1781096825019-sequencenumber)"/><text x="2129" y="767" font-family="sans-serif" font-size="12px" text-anchor="middle" class="sequenceNumber">11</text><text x="2668" y="778" text-anchor="middle" dominant-baseline="middle" alignment-baseline="middle" class="messageText" dy="1em" style="font-size: 16px; font-weight: 400;">prisma.reservation.updateMany({ where: { groupId }, data })</text><line x1="2424" y1="821" x2="2918" y2="821" class="messageLine0" data-et="message" data-id="i23" data-from="Repo" data-to="DB" stroke-width="2" stroke="none" marker-end="url(#mermaid-0-1781096825019-arrowhead)" style="fill: none;"/><line x1="2409" y1="821" x2="2409" y2="821" stroke-width="0" marker-start="url(#mermaid-0-1781096825019-sequencenumber)"/><text x="2409" y="825" font-family="sans-serif" font-size="12px" text-anchor="middle" class="sequenceNumber">12</text><text x="2669" y="836" text-anchor="middle" dominant-baseline="middle" alignment-baseline="middle" class="messageText" dy="1em" style="font-size: 16px; font-weight: 400;">갱신된 Reservation[] 반환</text><line x1="2923" y1="879" x2="2421" y2="879" class="messageLine1" data-et="message" data-id="i25" data-from="DB" data-to="Repo" stroke-width="2" stroke="none" marker-end="url(#mermaid-0-1781096825019-arrowhead)" style="stroke-dasharray: 3, 3; fill: none;"/><line x1="2926" y1="879" x2="2926" y2="879" stroke-width="0" marker-start="url(#mermaid-0-1781096825019-sequencenumber)"/><text x="2926" y="883" font-family="sans-serif" font-size="12px" text-anchor="middle" class="sequenceNumber">13</text><text x="2275" y="894" text-anchor="middle" dominant-baseline="middle" alignment-baseline="middle" class="messageText" dy="1em" style="font-size: 16px; font-weight: 400;">완료</text><line x1="2414" y1="931" x2="2141" y2="931" class="messageLine1" data-et="message" data-id="i27" data-from="Repo" data-to="UC" stroke-width="2" stroke="none" marker-end="url(#mermaid-0-1781096825019-arrowhead)" style="stroke-dasharray: 3, 3; fill: none;"/><line x1="2417" y1="931" x2="2417" y2="931" stroke-width="0" marker-start="url(#mermaid-0-1781096825019-sequencenumber)"/><text x="2417" y="935" font-family="sans-serif" font-size="12px" text-anchor="middle" class="sequenceNumber">14</text><text x="2274" y="995" text-anchor="middle" dominant-baseline="middle" alignment-baseline="middle" class="messageText" dy="1em" style="font-size: 16px; font-weight: 400;">update(id, data)</text><line x1="2144" y1="1038" x2="2409" y2="1038" class="messageLine0" data-et="message" data-id="i30" data-from="UC" data-to="Repo" stroke-width="2" stroke="none" marker-end="url(#mermaid-0-1781096825019-arrowhead)" style="fill: none;"/><line x1="2129" y1="1038" x2="2129" y2="1038" stroke-width="0" marker-start="url(#mermaid-0-1781096825019-sequencenumber)"/><text x="2129" y="1042" font-family="sans-serif" font-size="12px" text-anchor="middle" class="sequenceNumber">15</text><text x="2668" y="1053" text-anchor="middle" dominant-baseline="middle" alignment-baseline="middle" class="messageText" dy="1em" style="font-size: 16px; font-weight: 400;">prisma.reservation.update({ where: { id }, data })</text><line x1="2424" y1="1096" x2="2918" y2="1096" class="messageLine0" data-et="message" data-id="i32" data-from="Repo" data-to="DB" stroke-width="2" stroke="none" marker-end="url(#mermaid-0-1781096825019-arrowhead)" style="fill: none;"/><line x1="2409" y1="1096" x2="2409" y2="1096" stroke-width="0" marker-start="url(#mermaid-0-1781096825019-sequencenumber)"/><text x="2409" y="1100" font-family="sans-serif" font-size="12px" text-anchor="middle" class="sequenceNumber">16</text><text x="2669" y="1111" text-anchor="middle" dominant-baseline="middle" alignment-baseline="middle" class="messageText" dy="1em" style="font-size: 16px; font-weight: 400;">갱신된 Reservation 반환</text><line x1="2923" y1="1154" x2="2421" y2="1154" class="messageLine1" data-et="message" data-id="i34" data-from="DB" data-to="Repo" stroke-width="2" stroke="none" marker-end="url(#mermaid-0-1781096825019-arrowhead)" style="stroke-dasharray: 3, 3; fill: none;"/><line x1="2926" y1="1154" x2="2926" y2="1154" stroke-width="0" marker-start="url(#mermaid-0-1781096825019-sequencenumber)"/><text x="2926" y="1158" font-family="sans-serif" font-size="12px" text-anchor="middle" class="sequenceNumber">17</text><text x="2275" y="1169" text-anchor="middle" dominant-baseline="middle" alignment-baseline="middle" class="messageText" dy="1em" style="font-size: 16px; font-weight: 400;">완료</text><line x1="2414" y1="1206" x2="2141" y2="1206" class="messageLine1" data-et="message" data-id="i36" data-from="Repo" data-to="UC" stroke-width="2" stroke="none" marker-end="url(#mermaid-0-1781096825019-arrowhead)" style="stroke-dasharray: 3, 3; fill: none;"/><line x1="2417" y1="1206" x2="2417" y2="1206" stroke-width="0" marker-start="url(#mermaid-0-1781096825019-sequencenumber)"/><text x="2417" y="1210" font-family="sans-serif" font-size="12px" text-anchor="middle" class="sequenceNumber">18</text><text x="1942" y="1231" text-anchor="middle" dominant-baseline="middle" alignment-baseline="middle" class="messageText" dy="1em" style="font-size: 16px; font-weight: 400;">결과 반환</text><line x1="2134" y1="1268" x2="1756" y2="1268" class="messageLine1" data-et="message" data-id="i39" data-from="UC" data-to="IPC" stroke-width="2" stroke="none" marker-end="url(#mermaid-0-1781096825019-arrowhead)" style="stroke-dasharray: 3, 3; fill: none;"/><line x1="2137" y1="1268" x2="2137" y2="1268" stroke-width="0" marker-start="url(#mermaid-0-1781096825019-sequencenumber)"/><text x="2137" y="1272" font-family="sans-serif" font-size="12px" text-anchor="middle" class="sequenceNumber">19</text><text x="1629" y="1283" text-anchor="middle" dominant-baseline="middle" alignment-baseline="middle" class="messageText" dy="1em" style="font-size: 16px; font-weight: 400;">{ success: true }</text><line x1="1749" y1="1326" x2="1515.5" y2="1326" class="messageLine1" data-et="message" data-id="i41" data-from="IPC" data-to="Preload" stroke-width="2" stroke="none" marker-end="url(#mermaid-0-1781096825019-arrowhead)" style="stroke-dasharray: 3, 3; fill: none;"/><line x1="1752" y1="1326" x2="1752" y2="1326" stroke-width="0" marker-start="url(#mermaid-0-1781096825019-sequencenumber)"/><text x="1752" y="1330" font-family="sans-serif" font-size="12px" text-anchor="middle" class="sequenceNumber">20</text><text x="1275" y="1341" text-anchor="middle" dominant-baseline="middle" alignment-baseline="middle" class="messageText" dy="1em" style="font-size: 16px; font-weight: 400;">Promise Resolve</text><line x1="1508.5" y1="1384" x2="1047.5" y2="1384" class="messageLine1" data-et="message" data-id="i43" data-from="Preload" data-to="Drawer" stroke-width="2" stroke="none" marker-end="url(#mermaid-0-1781096825019-arrowhead)" style="stroke-dasharray: 3, 3; fill: none;"/><line x1="1511.5" y1="1384" x2="1511.5" y2="1384" stroke-width="0" marker-start="url(#mermaid-0-1781096825019-sequencenumber)"/><text x="1511.5" y="1388" font-family="sans-serif" font-size="12px" text-anchor="middle" class="sequenceNumber">21</text><text x="1045" y="1399" text-anchor="middle" dominant-baseline="middle" alignment-baseline="middle" class="messageText" dy="1em" style="font-size: 16px; font-weight: 400;">onClose() — Drawer 닫기</text><path d="M 1044.5,1442 C 1104.5,1432 1104.5,1472 1044.5,1462" class="messageLine0" data-et="message" data-id="i45" data-from="Drawer" data-to="Drawer" stroke-width="2" stroke="none" marker-end="url(#mermaid-0-1781096825019-arrowhead)" x1="1050.5" style="fill: none;"/><line x1="1035.5" y1="1442" x2="1035.5" y2="1442" stroke-width="0" marker-start="url(#mermaid-0-1781096825019-sequencenumber)"/><text x="1035.5" y="1446" font-family="sans-serif" font-size="12px" text-anchor="middle" class="sequenceNumber">22</text><text x="349" y="1487" text-anchor="middle" dominant-baseline="middle" alignment-baseline="middle" class="messageText" dy="1em" style="font-size: 16px; font-weight: 400;">예약 목록 갱신 및 타임테이블 리렌더링</text><path d="M 349,1524 C 409,1514 409,1554 349,1544" class="messageLine0" data-et="message" data-id="i47" data-from="UI" data-to="UI" stroke-width="2" stroke="none" marker-end="url(#mermaid-0-1781096825019-arrowhead)" x1="355" style="fill: none;"/><line x1="340" y1="1524" x2="340" y2="1524" stroke-width="0" marker-start="url(#mermaid-0-1781096825019-sequencenumber)"/><text x="340" y="1528" font-family="sans-serif" font-size="12px" text-anchor="middle" class="sequenceNumber">23</text><text x="209" y="1569" text-anchor="middle" dominant-baseline="middle" alignment-baseline="middle" class="messageText" dy="1em" style="font-size: 16px; font-weight: 400;">수정 사항 반영 완료</text><line x1="345" y1="1606" x2="79" y2="1606" class="messageLine1" data-et="message" data-id="i48" data-from="UI" data-to="Admin" stroke-width="2" stroke="none" marker-end="url(#mermaid-0-1781096825019-arrowhead)" style="stroke-dasharray: 3, 3; fill: none;"/><line x1="348" y1="1606" x2="348" y2="1606" stroke-width="0" marker-start="url(#mermaid-0-1781096825019-sequencenumber)"/><text x="348" y="1610" font-family="sans-serif" font-size="12px" text-anchor="middle" class="sequenceNumber">24</text><g class="actor-man actor-bottom" name="Admin" style="stroke: rgb(204, 204, 204);"><line id="actor-man-torso8" x1="75" y1="1651" x2="75" y2="1671"/><line id="actor-man-arms8" x1="57" y1="1659" x2="93" y2="1659"/><line x1="57" y1="1686" x2="75" y2="1671"/><line x1="75" y1="1671" x2="91" y2="1686"/><circle cx="75" cy="1636" r="15" width="150" height="65"/><text x="75" y="1693.5" dominant-baseline="central" alignment-baseline="central" class="actor actor-man" style="text-anchor: middle; font-size: 16px; font-weight: 400;"><tspan x="75" dy="0">관리자</tspan></text></g></svg>